<?xml version="1.0" encoding="utf-8"?>
<!-- Task Manager Favicon -->
<!DOCTYPE svg PUBLIC "-//W3C//DTD SVG 1.1//EN" "http://www.w3.org/Graphics/SVG/1.1/DTD/svg11.dtd">
<svg version="1.1" id="TaskManagerFavicon" xmlns="http://www.w3.org/2000/svg" xmlns:xlink="http://www.w3.org/1999/xlink" 
     x="0px" y="0px" width="32px" height="32px" viewBox="0 0 32 32" enable-background="new 0 0 32 32" xml:space="preserve">

<!-- Background circle -->
<circle cx="16" cy="16" r="16" fill="#4A90E2"/>

<!-- Clipboard/Document -->
<rect x="8" y="6" width="16" height="20" rx="1" ry="1" fill="#FFFFFF"/>
<rect x="14" y="4" width="4" height="3" rx="0.5" ry="0.5" fill="#666666"/>

<!-- Task lines with checkboxes -->
<rect x="10" y="10" width="2" height="2" rx="0.2" ry="0.2" fill="#4A90E2"/>
<rect x="13" y="10" width="8" height="1" fill="#E0E0E0"/>

<rect x="10" y="13" width="2" height="2" rx="0.2" ry="0.2" fill="#27AE60"/>
<rect x="13" y="13" width="8" height="1" fill="#E0E0E0"/>

<rect x="10" y="16" width="2" height="2" rx="0.2" ry="0.2" fill="#4A90E2"/>
<rect x="13" y="16" width="8" height="1" fill="#E0E0E0"/>

<rect x="10" y="19" width="2" height="2" rx="0.2" ry="0.2" fill="#27AE60"/>
<rect x="13" y="19" width="8" height="1" fill="#E0E0E0"/>

<!-- Checkmarks for completed tasks -->
<path d="M10.5,14 L11,14.5 L12,13.5" fill="none" stroke="#FFFFFF" stroke-width="0.8" stroke-linecap="round"/>
<path d="M10.5,20 L11,20.5 L12,19.5" fill="none" stroke="#FFFFFF" stroke-width="0.8" stroke-linecap="round"/>

</svg>